{"glyphs":{"0":{"ha":794,"x_min":113,"x_max":914,"o":"m 767 108 q 694 29 751 64 q 601 0 643 0 l 211 0 q 139 25 165 0 q 113 83 113 50 q 117 108 113 96 l 257 542 q 324 617 271 583 q 422 650 376 650 l 813 650 q 914 579 914 650 q 907 542 914 563 l 767 108 m 542 217 l 647 542 l 518 542 l 413 217 l 542 217 z "},"1":{"ha":585,"x_min":260,"x_max":706,"o":"m 436 542 l 306 542 l 342 650 l 601 650 q 706 590 706 650 q 696 542 706 569 l 519 0 l 260 0 l 436 542 z "},"2":{"ha":896,"x_min":-33,"x_max":1043,"o":"m 183 325 q 349 433 218 433 l 738 433 l 774 542 l 514 542 l 549 650 l 939 650 q 1043 590 1043 650 q 1033 542 1043 571 l 999 433 q 943 348 978 371 q 833 325 908 325 l 574 325 q 468 294 514 325 q 408 217 422 263 l 338 0 q 329 -44 329 -25 q 432 -108 329 -108 l 953 -108 l 847 -433 l 67 -433 q -6 -412 22 -433 q -33 -356 -33 -390 q -28 -325 -33 -340 l 183 325 z "},"3":{"ha":843,"x_min":131,"x_max":965,"o":"m 200 217 l 590 217 l 625 325 l 365 325 l 401 433 l 661 433 l 696 542 l 306 542 l 342 650 l 861 650 q 965 588 965 650 q 956 542 965 569 l 926 451 q 867 399 918 424 q 817 379 844 389 q 882 319 882 357 q 879 307 882 314 l 815 108 q 650 0 781 0 l 131 0 l 200 217 z "},"4":{"ha":828,"x_min":236,"x_max":921,"o":"m 306 542 l 436 542 l 401 433 l 531 433 l 601 650 l 861 650 l 790 433 l 921 433 l 886 325 l 756 325 l 650 0 l 390 0 l 496 325 l 236 325 l 306 542 z "},"5":{"ha":907,"x_min":-194,"x_max":969,"o":"m 751 -325 q 687 -404 735 -375 q 586 -433 639 -433 l -194 -433 l -89 -108 l 432 -108 q 597 0 561 -108 l 667 217 q 676 265 676 246 q 572 325 676 325 l 182 325 l 288 650 l 808 650 l 772 542 l 513 542 l 478 433 l 868 433 q 969 361 969 433 q 963 325 969 344 l 751 -325 z "},"6":{"ha":835,"x_min":161,"x_max":892,"o":"m 306 542 q 378 626 324 596 q 471 650 422 650 l 861 650 l 826 542 l 567 542 l 531 433 l 790 433 q 892 358 892 433 q 886 325 892 343 l 815 108 q 650 0 781 0 l 260 0 q 187 24 213 0 q 161 81 161 47 q 165 108 161 94 l 306 542 m 460 217 l 721 217 l 756 325 l 496 325 l 460 217 z "},"7":{"ha":682,"x_min":131,"x_max":861,"o":"m 342 650 l 861 650 l 826 542 l 390 0 l 131 0 l 567 542 l 306 542 l 342 650 z "},"8":{"ha":793,"x_min":111,"x_max":911,"o":"m 765 108 q 701 31 750 63 q 600 0 653 0 l 210 0 q 138 24 164 0 q 111 82 111 49 q 115 108 111 96 l 179 307 q 290 379 193 349 q 226 451 215 417 l 256 542 q 321 620 272 590 q 421 650 369 650 l 811 650 q 911 575 911 650 q 906 542 911 560 l 876 451 q 767 379 865 418 q 831 317 831 350 q 829 307 831 311 l 765 108 m 611 433 l 646 542 l 517 542 l 481 433 l 611 433 m 540 217 l 575 325 l 446 325 l 410 217 l 540 217 z "},"9":{"ha":793,"x_min":79,"x_max":911,"o":"m 765 108 q 690 25 747 56 q 600 0 643 0 l 79 0 l 150 217 l 540 217 l 575 325 l 315 325 q 242 349 269 325 q 215 407 215 372 q 221 433 215 419 l 256 542 q 311 613 268 581 q 421 650 360 650 l 811 650 q 882 630 853 650 q 911 574 911 610 q 906 542 911 558 l 765 108 m 646 542 l 386 542 l 350 433 l 610 433 l 646 542 z "},"!":{"ha":408,"x_min":51,"x_max":558,"o":"m 382 108 l 122 108 l 297 650 l 558 650 l 382 108 m 311 -108 l 51 -108 l 86 0 l 347 0 l 311 -108 z "},"\"":{"ha":694,"x_min":343,"x_max":933,"o":"m 933 825 l 797 608 l 668 608 l 672 825 l 933 825 m 608 825 l 472 608 l 343 608 l 347 825 l 608 825 z "},"#":{"ha":686,"x_min":39,"x_max":647,"o":"m 247 279 l 401 279 l 447 494 l 290 494 l 247 279 m 468 281 l 597 281 l 597 193 l 453 193 l 411 0 l 346 0 l 385 193 l 231 193 l 190 0 l 124 0 l 163 193 l 39 193 l 39 281 l 181 281 l 222 493 l 90 493 l 90 581 l 242 581 l 276 769 l 346 769 l 310 581 l 463 581 l 501 769 l 568 769 l 531 581 l 647 581 l 647 493 l 513 493 l 468 281 z "},"%":{"ha":808,"x_min":131,"x_max":926,"o":"m 371 542 q 321 582 321 542 q 349 630 321 610 q 406 650 376 650 q 456 610 456 650 q 428 562 456 582 q 371 542 400 542 m 926 650 l 390 0 l 131 0 l 667 650 l 926 650 m 650 0 q 600 40 600 0 q 628 88 600 68 q 685 108 656 108 q 735 68 735 108 q 707 20 735 40 q 650 0 679 0 z "},"&":{"ha":940,"x_min":161,"x_max":1025,"o":"m 990 217 l 913 0 l 260 0 q 187 24 213 0 q 161 81 161 47 q 165 108 161 94 l 306 542 q 378 626 324 596 q 471 650 422 650 l 861 650 l 826 542 l 567 542 l 531 433 l 1025 433 l 990 325 l 886 325 l 850 217 l 990 217 m 756 325 l 496 325 l 460 217 l 721 217 l 756 325 z "},"'":{"ha":369,"x_min":343,"x_max":608,"o":"m 608 825 l 472 608 l 343 608 l 347 825 l 608 825 z "},"(":{"ha":324,"x_min":42,"x_max":282,"o":"m 181 -199 q 42 301 42 36 q 181 801 42 567 l 281 801 q 166 571 204 697 q 128 301 128 444 q 282 -199 128 44 l 181 -199 z "},")":{"ha":322,"x_min":40,"x_max":279,"o":"m 40 -199 q 111 -76 82 -135 q 159 43 140 -17 q 186 166 178 103 q 194 301 194 229 q 156 569 194 450 q 40 801 118 688 l 140 801 q 245 560 211 683 q 279 301 279 436 q 245 43 279 167 q 140 -199 211 -81 l 40 -199 z "},"*":{"ha":883,"x_min":192,"x_max":947,"o":"m 689 707 l 753 576 l 947 588 l 842 436 l 933 319 l 738 263 l 658 106 l 519 185 l 328 106 l 351 263 l 192 319 l 360 436 l 353 588 l 539 576 l 689 707 z "},"+":{"ha":644,"x_min":176,"x_max":731,"o":"m 696 325 l 567 325 l 531 217 l 271 217 l 306 325 l 176 325 l 211 433 l 342 433 l 376 542 l 636 542 l 601 433 l 731 433 l 696 325 z "},",":{"ha":421,"x_min":90,"x_max":378,"o":"m 117 108 l 378 108 l 264 -108 l 90 -108 l 117 108 z "},"-":{"ha":681,"x_min":192,"x_max":747,"o":"m 713 325 l 192 325 l 228 433 l 747 433 l 713 325 z "},".":{"ha":449,"x_min":94,"x_max":390,"o":"m 131 0 l 390 0 l 354 -108 l 94 -108 l 131 0 z "},":":{"ha":404,"x_min":122,"x_max":488,"o":"m 157 217 l 417 217 l 382 108 l 122 108 l 157 217 m 228 433 l 488 433 l 453 325 l 192 325 l 228 433 z "},";":{"ha":401,"x_min":128,"x_max":485,"o":"m 225 433 l 485 433 l 450 325 l 189 325 l 225 433 m 154 217 l 414 217 l 300 0 l 128 0 l 154 217 z "},"<":{"ha":557,"x_min":167,"x_max":644,"o":"m 503 163 l 167 325 l 201 433 l 644 596 l 615 506 l 319 397 l 308 361 l 532 253 l 503 163 z "},"=":{"ha":644,"x_min":157,"x_max":783,"o":"m 747 433 l 228 433 l 263 542 l 783 542 l 747 433 m 676 217 l 157 217 l 192 325 l 713 325 l 676 217 z "},">":{"ha":493,"x_min":114,"x_max":592,"o":"m 556 325 l 114 163 l 143 253 l 438 361 l 450 397 l 225 506 l 254 596 l 592 433 l 556 325 z "},"?":{"ha":750,"x_min":-17,"x_max":889,"o":"m 844 433 q 775 354 829 386 q 679 325 726 325 l 550 325 q 385 217 419 325 l 314 0 l 54 0 l 160 325 q 224 400 174 367 q 325 433 274 433 l 585 433 l 621 542 l 360 542 l 396 650 l 785 650 q 889 588 889 650 q 881 542 889 568 l 844 433 m 244 -217 l -17 -217 l 19 -108 l 279 -108 l 244 -217 z "},"B":{"ha":796,"x_min":83,"x_max":917,"o":"m 768 108 q 705 34 756 68 q 603 0 654 0 l 83 0 l 294 650 l 814 650 q 917 585 917 650 q 910 542 917 565 l 881 451 q 769 379 867 411 q 835 319 835 357 q 833 307 835 314 l 768 108 m 614 433 l 650 542 l 519 542 l 485 433 l 614 433 m 543 217 l 579 325 l 449 325 l 414 217 l 543 217 z "},"C":{"ha":792,"x_min":88,"x_max":919,"o":"m 708 0 l 188 0 q 88 76 88 0 q 93 108 88 92 l 233 542 q 300 616 247 582 q 399 650 353 650 l 919 650 l 883 542 l 494 542 l 389 217 l 778 217 l 708 0 z "},"D":{"ha":797,"x_min":85,"x_max":915,"o":"m 769 108 q 696 26 753 57 q 604 0 650 0 l 85 0 l 296 650 l 815 650 q 888 628 861 650 q 915 571 915 606 q 910 542 915 557 l 769 108 m 544 217 l 650 542 l 519 542 l 414 217 l 544 217 z "},"E":{"ha":786,"x_min":74,"x_max":903,"o":"m 692 0 l 172 0 q 101 25 129 0 q 74 85 74 50 q 76 108 74 96 l 218 542 q 284 615 231 581 q 383 650 338 650 l 903 650 l 868 542 l 478 542 l 443 433 l 703 433 l 667 325 l 407 325 l 372 217 l 763 217 l 692 0 z "},"F":{"ha":707,"x_min":64,"x_max":925,"o":"m 890 542 l 500 542 l 465 433 l 725 433 l 689 325 l 429 325 l 324 0 l 64 0 l 240 542 q 306 616 253 582 q 406 650 360 650 l 925 650 l 890 542 z "},"G":{"ha":714,"x_min":63,"x_max":1296,"o":"m 1190 -433 l 410 -433 q 338 -410 364 -433 q 311 -353 311 -387 q 315 -325 311 -339 l 421 0 l 161 0 q 89 24 115 0 q 63 82 63 49 q 67 108 63 96 l 207 542 q 272 616 221 582 q 372 650 322 650 l 892 650 l 857 542 l 467 542 l 361 217 l 492 217 l 526 325 l 786 325 l 681 0 q 678 -25 678 -11 q 699 -81 678 -58 q 776 -108 726 -108 l 1296 -108 l 1190 -433 z "},"H":{"ha":704,"x_min":31,"x_max":1296,"o":"m 1190 -433 l 410 -433 q 337 -408 363 -433 q 311 -350 311 -383 q 315 -325 311 -337 l 526 325 l 396 325 l 290 0 l 31 0 l 242 650 l 501 650 l 432 433 l 561 433 l 632 650 l 892 650 l 681 0 q 675 -33 675 -17 q 775 -108 675 -108 l 1296 -108 l 1190 -433 z "},"I":{"ha":413,"x_min":86,"x_max":558,"o":"m 347 0 l 86 0 l 297 650 l 558 650 l 347 0 z "},"J":{"ha":447,"x_min":-672,"x_max":589,"o":"m 272 -325 q 213 -397 260 -364 q 107 -433 161 -433 l -672 -433 l -567 -108 l -47 -108 q 118 0 83 -108 l 329 650 l 589 650 l 272 -325 z "},"K":{"ha":660,"x_min":71,"x_max":1465,"o":"m 1360 -433 l 667 -433 q 529 -325 574 -433 l 367 150 l 321 0 l 71 0 l 282 650 l 543 650 l 489 488 l 672 650 l 803 650 l 528 406 l 721 0 q 768 -74 746 -53 q 860 -108 803 -108 l 1465 -108 l 1360 -433 z "},"L":{"ha":347,"x_min":-61,"x_max":924,"o":"m 818 -433 l 39 -433 q -61 -356 -61 -433 q -57 -325 -61 -340 l 261 650 l 521 650 l 310 0 q 304 -28 304 -14 q 404 -108 304 -108 l 924 -108 l 818 -433 z "},"M":{"ha":1103,"x_min":14,"x_max":1669,"o":"m 1564 -433 l 783 -433 q 683 -354 683 -433 q 689 -325 683 -339 l 864 217 l 664 0 l 404 0 l 344 217 l 274 0 l 14 0 l 225 650 l 485 650 l 604 217 l 1006 650 l 1265 650 l 1054 0 q 1050 -29 1050 -14 q 1149 -108 1050 -108 l 1669 -108 l 1564 -433 z "},"N":{"ha":828,"x_min":25,"x_max":1419,"o":"m 1314 -433 l 535 -433 q 433 -358 433 -433 q 439 -325 433 -342 l 544 0 l 390 325 l 285 0 l 25 0 l 236 650 l 496 650 l 650 325 l 756 650 l 1017 650 l 806 0 q 799 -35 799 -18 q 900 -108 799 -108 l 1419 -108 l 1314 -433 z "},"O":{"ha":794,"x_min":113,"x_max":914,"o":"m 767 108 q 694 29 751 64 q 601 0 643 0 l 211 0 q 139 25 165 0 q 113 83 113 50 q 117 108 113 96 l 257 542 q 324 617 271 583 q 422 650 376 650 l 813 650 q 914 579 914 650 q 907 542 914 563 l 767 108 m 542 217 l 647 542 l 518 542 l 413 217 l 542 217 z "},"P":{"ha":736,"x_min":67,"x_max":899,"o":"m 858 433 q 794 358 844 392 q 693 325 744 325 l 433 325 l 328 0 l 67 0 l 278 650 l 799 650 q 860 632 831 650 q 899 571 899 610 q 893 542 899 557 l 858 433 m 599 433 l 633 542 l 503 542 l 468 433 l 599 433 z "},"Q":{"ha":692,"x_min":57,"x_max":1161,"o":"m 1056 -433 l 275 -433 q 203 -408 229 -433 q 176 -349 176 -383 q 181 -325 176 -336 l 286 0 l 156 0 q 86 24 115 0 q 57 82 57 47 q 61 108 57 96 l 203 542 q 269 621 217 589 q 368 650 318 650 l 757 650 q 858 576 858 650 q 853 542 858 560 l 711 108 q 643 24 693 54 q 546 0 599 -4 q 542 -32 542 -17 q 640 -108 542 -108 l 1161 -108 l 1056 -433 m 486 217 l 592 542 l 463 542 l 357 217 l 486 217 z "},"R":{"ha":725,"x_min":38,"x_max":1301,"o":"m 1196 -433 l 417 -433 q 349 -408 379 -433 q 318 -349 318 -383 q 321 -325 318 -336 l 532 325 l 403 325 l 297 0 l 38 0 l 249 650 l 768 650 q 869 582 869 650 q 863 542 869 564 l 839 469 q 701 379 819 410 q 783 306 783 354 q 781 289 783 297 l 688 0 q 678 -46 678 -26 q 782 -108 678 -108 l 1301 -108 l 1196 -433 m 568 433 l 603 542 l 472 542 l 438 433 l 568 433 z "},"S":{"ha":838,"x_min":-244,"x_max":918,"o":"m 701 -325 q 635 -401 688 -368 q 536 -433 583 -433 l -244 -433 l -139 -108 l 382 -108 q 546 0 511 -108 l 617 217 q 624 256 624 238 q 522 325 624 325 l 263 325 q 163 403 163 325 q 167 433 163 418 l 203 542 q 264 615 215 581 q 368 650 313 650 l 758 650 l 722 542 l 463 542 l 428 433 l 817 433 q 918 361 918 433 q 913 325 918 344 l 701 -325 z "},"T":{"ha":540,"x_min":56,"x_max":1040,"o":"m 935 -433 l 154 -433 q 83 -410 111 -433 q 56 -353 56 -387 q 60 -325 56 -339 l 342 542 l 211 542 l 246 650 l 767 650 l 731 542 l 601 542 l 425 0 q 418 -40 418 -22 q 519 -108 418 -108 l 1040 -108 l 935 -433 z "},"U":{"ha":769,"x_min":86,"x_max":917,"o":"m 740 108 q 671 29 725 61 q 575 0 622 0 l 185 0 q 115 24 143 0 q 86 83 86 49 q 90 108 86 96 l 267 650 l 526 650 l 386 217 l 515 217 l 657 650 l 917 650 l 740 108 z "},"V":{"ha":736,"x_min":163,"x_max":893,"o":"m 893 650 l 553 0 l 163 0 l 243 650 l 504 650 l 428 217 l 633 650 l 893 650 z "},"W":{"ha":1294,"x_min":201,"x_max":1453,"o":"m 1453 650 l 1111 0 l 722 0 l 763 325 l 592 0 l 201 0 l 283 650 l 543 650 l 467 217 l 674 650 l 1063 650 l 988 217 l 1193 650 l 1453 650 z "},"X":{"ha":818,"x_min":72,"x_max":933,"o":"m 722 0 l 463 0 l 450 163 l 332 0 l 72 0 l 308 325 l 283 650 l 543 650 l 556 488 l 674 650 l 933 650 l 699 325 l 722 0 z "},"Y":{"ha":729,"x_min":-635,"x_max":888,"o":"m 888 650 l 376 -325 q 305 -403 351 -372 q 211 -433 258 -433 l -635 -433 l -529 -108 l -8 -108 q 103 -78 56 -108 q 157 0 150 -49 l 238 650 l 497 650 l 422 217 l 628 650 l 888 650 z "},"Z":{"ha":758,"x_min":131,"x_max":861,"o":"m 650 0 l 131 0 l 200 217 l 567 542 l 306 542 l 342 650 l 861 650 l 826 542 l 460 217 l 721 217 l 650 0 z "},"_":{"ha":613,"x_min":0,"x_max":613,"o":"m 0 -18 l 613 -18 l 613 -169 l 0 -169 l 0 -18 z "},"a":{"ha":663,"x_min":114,"x_max":744,"o":"m 603 0 l 468 0 l 483 36 q 378 0 417 0 l 213 0 q 149 19 179 0 q 114 79 114 42 q 118 108 114 93 l 189 325 q 251 399 201 364 q 354 433 300 433 l 744 433 l 603 0 m 543 217 l 579 325 l 449 325 l 414 217 l 543 217 z "},"b":{"ha":649,"x_min":75,"x_max":707,"o":"m 631 108 q 566 28 614 57 q 465 0 518 0 l 75 0 l 286 650 l 547 650 l 476 433 l 606 433 q 678 413 650 433 q 707 357 707 393 q 701 325 707 342 l 631 108 m 536 217 l 571 325 l 440 325 l 406 217 l 536 217 z "},"c":{"ha":649,"x_min":108,"x_max":740,"o":"m 599 0 l 208 0 q 108 76 108 0 q 114 108 108 92 l 185 325 q 251 401 199 368 q 350 433 304 433 l 740 433 l 704 325 l 444 325 l 410 217 l 669 217 l 599 0 z "},"d":{"ha":650,"x_min":107,"x_max":807,"o":"m 596 0 l 206 0 q 131 26 158 0 q 107 83 107 49 q 111 108 107 96 l 181 325 q 251 404 196 371 q 346 433 300 433 l 476 433 l 547 650 l 807 650 l 596 0 m 406 217 l 440 325 l 311 325 l 276 217 l 406 217 z "},"e":{"ha":665,"x_min":113,"x_max":743,"o":"m 601 0 l 213 0 q 144 21 172 0 q 113 81 113 44 q 117 108 113 94 l 188 325 q 252 400 201 367 q 353 433 303 433 l 663 433 q 743 383 743 433 q 706 325 743 350 l 542 217 l 672 217 l 601 0 m 578 325 l 447 325 l 413 217 l 578 325 z "},"f":{"ha":506,"x_min":82,"x_max":683,"o":"m 542 217 l 413 217 l 342 0 l 82 0 l 257 542 q 325 622 274 592 q 422 650 371 650 l 683 650 l 647 542 l 518 542 l 447 325 l 578 325 l 542 217 z "},"g":{"ha":671,"x_min":-439,"x_max":753,"o":"m 506 -325 q 441 -403 490 -372 q 340 -433 392 -433 l -439 -433 l -333 -108 l 186 -108 q 324 -50 274 -108 q 351 0 343 -26 l 222 0 q 151 26 179 0 q 124 86 124 51 q 126 108 124 97 l 197 325 q 251 396 210 364 q 363 433 301 433 l 753 433 l 506 -325 m 422 217 l 457 325 l 328 325 l 292 217 l 422 217 z "},"h":{"ha":647,"x_min":76,"x_max":707,"o":"m 596 0 l 467 0 l 572 325 l 442 325 l 336 0 l 76 0 l 288 650 l 547 650 l 476 433 l 607 433 q 707 360 707 433 q 701 325 707 343 l 596 0 z "},"i":{"ha":400,"x_min":86,"x_max":558,"o":"m 522 542 l 263 542 l 297 650 l 558 650 l 522 542 m 347 0 l 86 0 l 228 433 l 488 433 l 347 0 z "},"j":{"ha":400,"x_min":-707,"x_max":554,"o":"m 519 542 l 260 542 l 294 650 l 554 650 l 519 542 m 238 -325 q 172 -403 222 -372 q 72 -433 122 -433 l -707 -433 l -601 -108 l -82 -108 q 83 0 49 -108 l 224 433 l 485 433 l 238 -325 z "},"k":{"ha":724,"x_min":61,"x_max":726,"o":"m 711 0 l 451 0 l 358 113 l 321 0 l 61 0 l 272 650 l 532 650 l 426 325 l 592 433 l 726 433 l 478 267 l 711 0 z "},"l":{"ha":401,"x_min":86,"x_max":558,"o":"m 347 0 l 86 0 l 297 650 l 558 650 l 347 0 z "},"m":{"ha":919,"x_min":85,"x_max":975,"o":"m 864 0 l 735 0 l 840 325 l 710 325 l 604 0 l 475 0 l 581 325 l 450 325 l 344 0 l 85 0 l 225 433 l 875 433 q 947 413 918 433 q 975 356 975 392 q 971 325 975 342 l 864 0 z "},"n":{"ha":660,"x_min":85,"x_max":714,"o":"m 604 0 l 475 0 l 581 325 l 450 325 l 344 0 l 85 0 l 225 433 l 615 433 q 685 410 657 433 q 714 350 714 386 q 710 325 714 338 l 604 0 z "},"o":{"ha":653,"x_min":111,"x_max":710,"o":"m 635 108 q 572 33 621 65 q 469 0 524 0 l 210 0 q 142 26 172 0 q 111 88 111 53 q 115 108 111 99 l 185 325 q 251 401 200 369 q 350 433 301 433 l 610 433 q 681 411 653 433 q 710 354 710 389 q 706 325 710 340 l 635 108 m 410 217 l 446 325 l 315 325 l 281 217 l 410 217 z "},"p":{"ha":665,"x_min":-699,"x_max":722,"o":"m 647 108 q 583 34 633 68 q 482 0 533 0 l 351 0 l 246 -325 q 181 -401 232 -368 q 81 -433 129 -433 l -699 -433 l -593 -108 l -74 -108 q 92 0 57 -108 l 232 433 l 622 433 q 722 354 722 433 q 717 325 722 340 l 647 108 m 553 217 l 588 325 l 457 325 l 422 217 l 553 217 z "},"q":{"ha":563,"x_min":67,"x_max":1169,"o":"m 1064 -433 l 283 -433 q 185 -354 185 -433 q 189 -325 185 -339 l 294 0 l 165 0 q 93 26 119 0 q 67 85 67 51 q 69 108 67 97 l 140 325 q 206 399 153 364 q 306 433 258 433 l 696 433 l 554 0 q 549 -35 549 -18 q 650 -108 549 -108 l 1169 -108 l 1064 -433 m 365 217 l 400 325 l 271 325 l 235 217 l 365 217 z "},"r":{"ha":489,"x_min":78,"x_max":608,"o":"m 572 325 l 443 325 l 338 0 l 78 0 l 183 325 q 251 404 197 371 q 349 433 301 433 l 608 433 l 572 325 z "},"s":{"ha":751,"x_min":-250,"x_max":756,"o":"m 610 -325 q 542 -401 594 -369 q 444 -433 490 -433 l -250 -433 l -143 -108 l 290 -108 q 454 0 414 -108 q 467 51 467 32 q 360 108 467 108 l 231 108 q 131 186 131 108 q 135 217 131 201 l 171 325 q 236 401 185 368 q 336 433 288 433 l 596 433 l 560 325 l 431 325 l 396 217 l 656 217 q 756 142 756 217 q 750 108 756 126 l 610 -325 z "},"t":{"ha":519,"x_min":113,"x_max":613,"o":"m 472 0 l 213 0 q 141 21 169 0 q 113 78 113 42 q 117 108 113 93 l 293 650 l 553 650 l 483 433 l 613 433 l 578 325 l 447 325 l 413 217 l 542 217 l 472 0 z "},"u":{"ha":663,"x_min":115,"x_max":744,"o":"m 639 108 q 582 35 625 65 q 474 0 535 0 l 214 0 q 142 24 168 0 q 115 82 115 47 q 119 108 115 94 l 225 433 l 485 433 l 414 217 l 544 217 l 615 433 l 744 433 l 639 108 z "},"v":{"ha":658,"x_min":231,"x_max":761,"o":"m 761 433 l 490 0 l 231 0 l 242 433 l 501 433 l 496 217 l 632 433 l 761 433 z "},"w":{"ha":1058,"x_min":221,"x_max":1142,"o":"m 1142 433 l 871 0 l 611 0 l 617 217 l 481 0 l 221 0 l 232 433 l 492 433 l 486 217 l 622 433 l 882 433 l 876 217 l 1011 433 l 1142 433 z "},"x":{"ha":688,"x_min":106,"x_max":724,"o":"m 669 0 l 410 0 l 361 113 l 236 0 l 106 0 l 326 196 l 225 433 l 485 433 l 515 364 l 593 433 l 724 433 l 550 279 l 669 0 z "},"y":{"ha":625,"x_min":-485,"x_max":707,"o":"m 461 -325 q 392 -407 443 -376 q 296 -433 346 -433 l -485 -433 l -379 -108 l 140 -108 q 251 -74 206 -108 q 306 0 289 -43 l 176 0 q 76 78 76 0 q 82 108 76 92 l 188 433 l 317 433 l 246 217 l 376 217 l 447 433 l 707 433 l 461 -325 z "},"z":{"ha":607,"x_min":108,"x_max":661,"o":"m 553 0 l 108 0 l 179 217 l 365 325 l 214 325 l 249 433 l 661 433 l 625 325 l 439 217 l 622 217 l 553 0 z "},"A":{"ha":710,"x_min":24,"x_max":1288,"o":"m 1182 -433 l 403 -433 q 335 -410 365 -433 q 304 -350 304 -386 q 308 -325 304 -337 l 519 325 l 389 325 l 283 0 l 24 0 l 200 542 q 272 624 215 592 q 364 650 319 650 l 754 650 q 857 581 857 650 q 850 542 857 564 l 674 0 q 668 -33 668 -18 q 768 -108 668 -108 l 1288 -108 l 1182 -433 m 554 433 l 589 542 l 460 542 l 424 433 l 554 433 z "},"…":{"ha":2004,"x_min":94,"x_max":1946,"o":"m 131 0 l 390 0 l 354 -108 l 94 -108 l 131 0 m 908 0 l 1168 0 l 1132 -108 l 872 -108 l 908 0 m 1686 0 l 1946 0 l 1910 -108 l 1650 -108 l 1686 0 z "},"¡":{"ha":408,"x_min":50,"x_max":557,"o":"m 226 433 l 486 433 l 311 -108 l 50 -108 l 226 433 m 297 650 l 557 650 l 522 542 l 261 542 l 297 650 z "},"¿":{"ha":750,"x_min":-17,"x_max":889,"o":"m 28 0 q 97 79 43 47 q 193 108 146 108 l 322 108 q 488 217 453 108 l 558 433 l 818 433 l 713 108 q 649 33 699 67 q 547 0 599 0 l 288 0 l 251 -108 l 513 -108 l 476 -217 l 88 -217 q -17 -154 -17 -217 q -8 -108 -17 -135 l 28 0 m 628 650 l 889 650 l 853 542 l 593 542 l 628 650 z "},"@":{"ha":669,"x_min":25,"x_max":639,"o":"m 450 492 l 450 339 q 496 286 450 286 q 547 318 524 286 q 569 408 569 350 q 557 513 569 465 q 516 596 544 561 q 443 650 488 631 q 335 669 399 669 q 241 652 285 669 q 165 600 197 635 q 115 514 133 565 q 96 394 96 463 q 154 186 96 257 q 310 100 213 115 l 301 31 q 180 72 232 40 q 93 152 128 104 q 42 263 58 200 q 25 396 25 325 q 51 540 25 476 q 119 648 76 604 q 218 715 163 692 q 335 738 274 738 q 559 659 479 738 q 639 414 639 581 q 634 358 639 390 q 614 297 629 326 q 570 248 599 268 q 494 228 542 228 q 403 279 425 228 q 324 253 367 253 q 243 283 278 253 q 208 372 208 314 q 239 462 208 431 q 322 493 269 493 q 393 474 365 493 l 399 492 l 450 492 m 393 411 q 333 436 369 436 q 265 372 265 436 q 329 311 265 311 q 393 340 369 311 l 393 411 z "},"`":{"ha":217,"x_min":158,"x_max":329,"o":"m 158 624 l 253 624 l 329 489 l 276 489 l 158 624 z "},"©":{"ha":882,"x_min":57,"x_max":829,"o":"m 57 385 q 88 535 57 464 q 170 658 118 606 q 293 740 222 710 q 443 771 364 771 q 593 740 522 771 q 716 658 664 710 q 799 535 768 606 q 829 385 829 464 q 799 235 829 306 q 716 112 768 164 q 593 29 664 60 q 443 -1 522 -1 q 293 29 364 -1 q 170 112 222 60 q 88 235 118 164 q 57 385 57 306 m 103 383 q 130 250 103 313 q 203 142 157 188 q 311 69 249 96 q 444 42 374 42 q 578 69 515 42 q 687 142 640 96 q 760 250 733 188 q 788 383 788 313 q 760 517 788 454 q 687 626 733 579 q 578 701 640 674 q 444 728 515 728 q 311 701 374 728 q 203 626 249 674 q 130 517 157 579 q 103 383 103 454 m 525 481 q 438 531 489 531 q 360 490 389 531 q 331 379 331 450 q 362 271 331 313 q 439 229 393 229 q 485 241 463 229 q 525 272 508 253 l 594 225 q 438 139 542 139 q 360 157 396 139 q 299 208 325 175 q 259 284 274 240 q 244 379 244 328 q 258 475 244 431 q 296 552 271 519 q 357 603 321 585 q 438 621 393 621 q 597 528 546 621 l 525 481 z "},"®":{"ha":750,"x_min":65,"x_max":693,"o":"m 375 728 q 270 707 317 728 q 191 653 224 686 q 141 576 158 619 q 124 490 124 533 q 141 403 124 446 q 191 326 158 360 q 270 272 224 293 q 375 251 317 251 q 478 269 429 251 q 564 320 528 288 q 622 397 600 353 q 643 490 643 440 q 623 576 643 533 q 567 653 603 619 q 483 707 532 686 q 375 728 433 728 m 376 197 q 251 222 308 197 q 153 286 194 246 q 88 379 111 326 q 65 490 65 432 q 88 603 65 550 q 153 697 111 657 q 251 761 194 738 q 376 785 308 785 q 503 762 444 785 q 603 699 561 739 q 669 606 646 660 q 693 490 693 553 q 669 379 693 432 q 602 286 644 326 q 501 222 560 246 q 376 197 443 197 m 342 581 l 342 508 l 394 508 q 428 543 428 508 q 394 581 428 581 l 342 581 m 375 443 l 342 443 l 342 326 l 279 326 l 279 644 l 393 644 q 465 618 438 644 q 492 543 492 592 q 479 491 492 511 q 439 453 467 471 l 496 326 l 429 326 l 375 443 z "},"‹":{"ha":319,"x_min":140,"x_max":357,"o":"m 215 419 l 357 353 l 357 269 l 140 376 l 140 458 l 357 571 l 357 485 l 215 419 z "},"™":{"ha":779,"x_min":143,"x_max":783,"o":"m 324 672 l 324 363 l 242 363 l 242 672 l 143 672 l 143 747 l 419 747 l 419 672 l 324 672 m 706 575 l 622 361 l 531 583 l 531 364 l 454 364 l 454 749 l 547 749 l 621 550 l 693 749 l 783 749 l 783 364 l 706 364 l 706 575 z "},"›":{"ha":319,"x_min":140,"x_max":357,"o":"m 282 422 l 140 488 l 140 571 l 357 464 l 357 382 l 140 269 l 140 356 l 282 422 z "},"«":{"ha":519,"x_min":140,"x_max":563,"o":"m 215 419 l 357 353 l 357 269 l 140 376 l 140 458 l 357 571 l 357 485 l 215 419 m 421 419 l 563 353 l 563 269 l 346 376 l 346 458 l 563 571 l 563 485 l 421 419 z "},"»":{"ha":536,"x_min":156,"x_max":578,"o":"m 503 422 l 361 488 l 361 571 l 578 464 l 578 382 l 361 269 l 361 356 l 503 422 m 297 422 l 156 488 l 156 571 l 372 464 l 372 382 l 156 269 l 156 356 l 297 422 z "},"ˆ":{"ha":375,"x_min":226,"x_max":536,"o":"m 381 594 l 313 504 l 226 504 l 339 638 l 421 638 l 536 504 l 449 504 l 381 594 z "},"˜":{"ha":435,"x_min":243,"x_max":579,"o":"m 579 572 q 478 506 554 506 q 444 512 458 506 q 415 526 429 518 q 388 540 401 533 q 358 546 374 546 q 325 535 342 546 q 292 499 308 525 l 243 540 q 290 596 264 579 q 347 613 315 613 q 388 607 372 613 q 417 594 404 601 q 443 581 431 586 q 474 575 456 575 q 536 622 514 575 l 579 572 z "},"¨":{"ha":467,"x_min":269,"x_max":586,"o":"m 332 519 q 287 538 304 519 q 269 583 269 557 q 287 629 269 611 q 332 647 304 647 q 377 629 358 647 q 396 583 396 611 q 377 538 396 557 q 332 519 358 519 m 524 519 q 480 538 499 519 q 461 583 461 557 q 480 629 461 611 q 524 647 499 647 q 569 629 551 647 q 586 583 586 611 q 569 538 586 557 q 524 519 551 519 z "},"´":{"ha":215,"x_min":267,"x_max":438,"o":"m 319 492 l 267 492 l 343 626 l 438 626 l 319 492 z "},"¸":{"ha":251,"x_min":78,"x_max":213,"o":"m 143 10 l 143 -40 q 213 -103 213 -40 q 192 -160 213 -143 q 126 -176 171 -176 q 98 -174 111 -176 q 78 -168 85 -171 l 92 -121 q 125 -126 103 -126 q 164 -107 164 -126 q 158 -92 164 -96 q 135 -87 151 -87 l 118 -87 q 110 -88 115 -87 q 99 -90 106 -89 l 99 10 l 143 10 z "},"˚":{"ha":318,"x_min":269,"x_max":438,"o":"m 354 656 q 317 639 333 656 q 300 599 300 622 q 316 558 300 574 q 354 542 332 542 q 394 558 378 542 q 411 599 411 574 q 394 639 411 622 q 354 656 376 656 m 353 513 q 293 536 317 513 q 269 596 269 560 q 293 659 269 633 q 353 685 317 685 q 413 658 389 685 q 438 596 438 632 q 413 536 438 560 q 353 513 389 513 z "},"ı":{"ha":400,"x_min":86,"x_max":488,"o":"m 347 0 l 86 0 l 228 433 l 488 433 l 347 0 z "},"Ÿ":{"ha":729,"x_min":-635,"x_max":888,"o":"m 888 650 l 376 -325 q 305 -403 351 -372 q 211 -433 258 -433 l -635 -433 l -529 -108 l -8 -108 q 103 -78 56 -108 q 157 0 150 -49 l 238 650 l 497 650 l 422 217 l 628 650 l 888 650 m 463 736 q 417 755 435 736 q 400 800 400 774 q 417 846 400 828 q 463 864 435 864 q 508 846 489 864 q 526 800 526 828 q 508 755 526 774 q 463 736 489 736 m 654 736 q 610 755 629 736 q 592 800 592 774 q 610 846 592 828 q 654 864 629 864 q 699 846 682 864 q 717 800 717 828 q 699 755 717 774 q 654 736 682 736 z "},"À":{"ha":710,"x_min":24,"x_max":1288,"o":"m 1182 -433 l 403 -433 q 335 -410 365 -433 q 304 -350 304 -386 q 308 -325 304 -337 l 519 325 l 389 325 l 283 0 l 24 0 l 200 542 q 272 624 215 592 q 364 650 319 650 l 754 650 q 857 581 857 650 q 850 542 857 564 l 674 0 q 668 -33 668 -18 q 768 -108 668 -108 l 1288 -108 l 1182 -433 m 554 433 l 589 542 l 460 542 l 424 433 l 554 433 m 438 840 l 532 840 l 608 706 l 556 706 l 438 840 z "},"Á":{"ha":710,"x_min":24,"x_max":1288,"o":"m 1182 -433 l 403 -433 q 335 -410 365 -433 q 304 -350 304 -386 q 308 -325 304 -337 l 519 325 l 389 325 l 283 0 l 24 0 l 200 542 q 272 624 215 592 q 364 650 319 650 l 754 650 q 857 581 857 650 q 850 542 857 564 l 674 0 q 668 -33 668 -18 q 768 -108 668 -108 l 1288 -108 l 1182 -433 m 554 433 l 589 542 l 460 542 l 424 433 l 554 433 m 575 708 l 522 708 l 599 843 l 693 843 l 575 708 z "},"Â":{"ha":710,"x_min":24,"x_max":1288,"o":"m 1182 -433 l 403 -433 q 335 -410 365 -433 q 304 -350 304 -386 q 308 -325 304 -337 l 519 325 l 389 325 l 283 0 l 24 0 l 200 542 q 272 624 215 592 q 364 650 319 650 l 754 650 q 857 581 857 650 q 850 542 857 564 l 674 0 q 668 -33 668 -18 q 768 -108 668 -108 l 1288 -108 l 1182 -433 m 554 433 l 589 542 l 460 542 l 424 433 l 554 433 m 571 811 l 503 721 l 417 721 l 529 854 l 611 854 l 726 721 l 639 721 l 571 811 z "},"Ã":{"ha":710,"x_min":24,"x_max":1288,"o":"m 1182 -433 l 403 -433 q 335 -410 365 -433 q 304 -350 304 -386 q 308 -325 304 -337 l 519 325 l 389 325 l 283 0 l 24 0 l 200 542 q 272 624 215 592 q 364 650 319 650 l 754 650 q 857 581 857 650 q 850 542 857 564 l 674 0 q 668 -33 668 -18 q 768 -108 668 -108 l 1288 -108 l 1182 -433 m 554 433 l 589 542 l 460 542 l 424 433 l 554 433 m 736 789 q 635 722 711 722 q 601 728 615 722 q 572 742 586 735 q 544 756 558 750 q 515 763 531 763 q 482 752 499 763 q 449 715 465 742 l 400 757 q 447 813 421 796 q 504 829 472 829 q 545 824 529 829 q 574 810 561 818 q 600 797 588 803 q 631 792 613 792 q 693 839 671 792 l 736 789 z "},"Ä":{"ha":710,"x_min":24,"x_max":1288,"o":"m 1182 -433 l 403 -433 q 335 -410 365 -433 q 304 -350 304 -386 q 308 -325 304 -337 l 519 325 l 389 325 l 283 0 l 24 0 l 200 542 q 272 624 215 592 q 364 650 319 650 l 754 650 q 857 581 857 650 q 850 542 857 564 l 674 0 q 668 -33 668 -18 q 768 -108 668 -108 l 1288 -108 l 1182 -433 m 554 433 l 589 542 l 460 542 l 424 433 l 554 433 m 483 736 q 438 755 456 736 q 421 800 421 774 q 438 846 421 828 q 483 864 456 864 q 528 846 510 864 q 547 800 547 828 q 528 755 547 774 q 483 736 510 736 m 675 736 q 631 755 650 736 q 613 800 613 774 q 631 846 613 828 q 675 864 650 864 q 720 846 703 864 q 738 800 738 828 q 720 755 738 774 q 675 736 703 736 z "},"Å":{"ha":710,"x_min":24,"x_max":1288,"o":"m 1182 -433 l 403 -433 q 335 -410 365 -433 q 304 -350 304 -386 q 308 -325 304 -337 l 519 325 l 389 325 l 283 0 l 24 0 l 200 542 q 272 624 215 592 q 364 650 319 650 l 754 650 q 857 581 857 650 q 850 542 857 564 l 674 0 q 668 -33 668 -18 q 768 -108 668 -108 l 1288 -108 l 1182 -433 m 554 433 l 589 542 l 460 542 l 424 433 l 554 433 m 593 872 q 556 856 572 872 q 539 815 539 839 q 555 774 539 790 q 593 758 571 758 q 633 774 617 758 q 650 815 650 790 q 633 856 650 839 q 593 872 615 872 m 592 729 q 532 753 556 729 q 508 813 508 776 q 532 876 508 850 q 592 901 556 901 q 652 875 628 901 q 676 813 676 849 q 652 753 676 776 q 592 729 628 729 z "},"Ç":{"ha":792,"x_min":88,"x_max":919,"o":"m 708 0 l 188 0 q 88 76 88 0 q 93 108 88 92 l 233 542 q 300 616 247 582 q 399 650 353 650 l 919 650 l 883 542 l 494 542 l 389 217 l 778 217 l 708 0 m 456 10 l 456 -40 q 525 -103 525 -40 q 504 -160 525 -143 q 439 -176 483 -176 q 410 -174 424 -176 q 390 -168 397 -171 l 404 -121 q 438 -126 415 -126 q 476 -107 476 -126 q 470 -92 476 -96 q 447 -87 464 -87 l 431 -87 q 423 -88 428 -87 q 411 -90 418 -89 l 411 10 l 456 10 z "},"È":{"ha":786,"x_min":74,"x_max":903,"o":"m 692 0 l 172 0 q 101 25 129 0 q 74 85 74 50 q 76 108 74 96 l 218 542 q 284 615 231 581 q 383 650 338 650 l 903 650 l 868 542 l 478 542 l 443 433 l 703 433 l 667 325 l 407 325 l 372 217 l 763 217 l 692 0 m 501 840 l 596 840 l 672 706 l 619 706 l 501 840 z "},"É":{"ha":786,"x_min":74,"x_max":903,"o":"m 692 0 l 172 0 q 101 25 129 0 q 74 85 74 50 q 76 108 74 96 l 218 542 q 284 615 231 581 q 383 650 338 650 l 903 650 l 868 542 l 478 542 l 443 433 l 703 433 l 667 325 l 407 325 l 372 217 l 763 217 l 692 0 m 617 708 l 564 708 l 640 843 l 735 843 l 617 708 z "},"Ê":{"ha":786,"x_min":74,"x_max":903,"o":"m 692 0 l 172 0 q 101 25 129 0 q 74 85 74 50 q 76 108 74 96 l 218 542 q 284 615 231 581 q 383 650 338 650 l 903 650 l 868 542 l 478 542 l 443 433 l 703 433 l 667 325 l 407 325 l 372 217 l 763 217 l 692 0 m 625 811 l 557 721 l 471 721 l 583 854 l 665 854 l 781 721 l 693 721 l 625 811 z "},"Ë":{"ha":786,"x_min":74,"x_max":903,"o":"m 692 0 l 172 0 q 101 25 129 0 q 74 85 74 50 q 76 108 74 96 l 218 542 q 284 615 231 581 q 383 650 338 650 l 903 650 l 868 542 l 478 542 l 443 433 l 703 433 l 667 325 l 407 325 l 372 217 l 763 217 l 692 0 m 492 736 q 447 755 464 736 q 429 800 429 774 q 447 846 429 828 q 492 864 464 864 q 537 846 518 864 q 556 800 556 828 q 537 755 556 774 q 492 736 518 736 m 683 736 q 640 755 658 736 q 621 800 621 774 q 640 846 621 828 q 683 864 658 864 q 728 846 711 864 q 746 800 746 828 q 728 755 746 774 q 683 736 711 736 z "},"Ì":{"ha":413,"x_min":86,"x_max":558,"o":"m 347 0 l 86 0 l 297 650 l 558 650 l 347 0 m 315 840 l 410 840 l 486 706 l 433 706 l 315 840 z "},"Í":{"ha":413,"x_min":86,"x_max":571,"o":"m 347 0 l 86 0 l 297 650 l 558 650 l 347 0 m 453 708 l 400 708 l 476 843 l 571 843 l 453 708 z "},"Î":{"ha":413,"x_min":86,"x_max":606,"o":"m 347 0 l 86 0 l 297 650 l 558 650 l 347 0 m 450 811 l 382 721 l 296 721 l 408 854 l 490 854 l 606 721 l 518 721 l 450 811 z "},"Ï":{"ha":413,"x_min":86,"x_max":625,"o":"m 347 0 l 86 0 l 297 650 l 558 650 l 347 0 m 371 736 q 326 755 343 736 q 308 800 308 774 q 326 846 308 828 q 371 864 343 864 q 416 846 397 864 q 435 800 435 828 q 416 755 435 774 q 371 736 397 736 m 563 736 q 519 755 538 736 q 500 800 500 774 q 519 846 500 828 q 563 864 538 864 q 608 846 590 864 q 625 800 625 828 q 608 755 625 774 q 563 736 590 736 z "},"Ñ":{"ha":828,"x_min":25,"x_max":1419,"o":"m 1314 -433 l 535 -433 q 433 -358 433 -433 q 439 -325 433 -342 l 544 0 l 390 325 l 285 0 l 25 0 l 236 650 l 496 650 l 650 325 l 756 650 l 1017 650 l 806 0 q 799 -35 799 -18 q 900 -108 799 -108 l 1419 -108 l 1314 -433 m 776 789 q 675 722 751 722 q 641 728 656 722 q 613 742 626 735 q 585 756 599 750 q 556 763 571 763 q 522 752 539 763 q 489 715 506 742 l 440 757 q 487 813 461 796 q 544 829 513 829 q 585 824 569 829 q 615 810 601 818 q 640 797 628 803 q 671 792 653 792 q 733 839 711 792 l 776 789 z "},"Ò":{"ha":794,"x_min":113,"x_max":914,"o":"m 767 108 q 694 29 751 64 q 601 0 643 0 l 211 0 q 139 25 165 0 q 113 83 113 50 q 117 108 113 96 l 257 542 q 324 617 271 583 q 422 650 376 650 l 813 650 q 914 579 914 650 q 907 542 914 563 l 767 108 m 542 217 l 647 542 l 518 542 l 413 217 l 542 217 m 506 840 l 600 840 l 676 706 l 624 706 l 506 840 z "},"Ó":{"ha":794,"x_min":113,"x_max":914,"o":"m 767 108 q 694 29 751 64 q 601 0 643 0 l 211 0 q 139 25 165 0 q 113 83 113 50 q 117 108 113 96 l 257 542 q 324 617 271 583 q 422 650 376 650 l 813 650 q 914 579 914 650 q 907 542 914 563 l 767 108 m 542 217 l 647 542 l 518 542 l 413 217 l 542 217 m 558 708 l 506 708 l 582 843 l 676 843 l 558 708 z "},"Ô":{"ha":794,"x_min":113,"x_max":914,"o":"m 767 108 q 694 29 751 64 q 601 0 643 0 l 211 0 q 139 25 165 0 q 113 83 113 50 q 117 108 113 96 l 257 542 q 324 617 271 583 q 422 650 376 650 l 813 650 q 914 579 914 650 q 907 542 914 563 l 767 108 m 542 217 l 647 542 l 518 542 l 413 217 l 542 217 m 590 811 l 522 721 l 436 721 l 549 854 l 631 854 l 746 721 l 658 721 l 590 811 z "},"Õ":{"ha":794,"x_min":113,"x_max":914,"o":"m 767 108 q 694 29 751 64 q 601 0 643 0 l 211 0 q 139 25 165 0 q 113 83 113 50 q 117 108 113 96 l 257 542 q 324 617 271 583 q 422 650 376 650 l 813 650 q 914 579 914 650 q 907 542 914 563 l 767 108 m 542 217 l 647 542 l 518 542 l 413 217 l 542 217 m 760 789 q 658 722 735 722 q 624 728 639 722 q 596 742 610 735 q 568 756 582 750 q 539 763 554 763 q 506 752 522 763 q 472 715 489 742 l 424 757 q 470 813 444 796 q 528 829 496 829 q 569 824 553 829 q 598 810 585 818 q 624 797 611 803 q 654 792 636 792 q 717 839 694 792 l 760 789 z "},"Ö":{"ha":794,"x_min":113,"x_max":914,"o":"m 767 108 q 694 29 751 64 q 601 0 643 0 l 211 0 q 139 25 165 0 q 113 83 113 50 q 117 108 113 96 l 257 542 q 324 617 271 583 q 422 650 376 650 l 813 650 q 914 579 914 650 q 907 542 914 563 l 767 108 m 542 217 l 647 542 l 518 542 l 413 217 l 542 217 m 524 736 q 478 755 496 736 q 461 800 461 774 q 478 846 461 828 q 524 864 496 864 q 569 846 550 864 q 588 800 588 828 q 569 755 588 774 q 524 736 550 736 m 715 736 q 672 755 690 736 q 653 800 653 774 q 672 846 653 828 q 715 864 690 864 q 760 846 743 864 q 778 800 778 828 q 760 755 778 774 q 715 736 743 736 z "},"Ù":{"ha":769,"x_min":86,"x_max":917,"o":"m 740 108 q 671 29 725 61 q 575 0 622 0 l 185 0 q 115 24 143 0 q 86 83 86 49 q 90 108 86 96 l 267 650 l 526 650 l 386 217 l 515 217 l 657 650 l 917 650 l 740 108 m 493 840 l 588 840 l 664 706 l 611 706 l 493 840 z "},"Ú":{"ha":769,"x_min":86,"x_max":917,"o":"m 740 108 q 671 29 725 61 q 575 0 622 0 l 185 0 q 115 24 143 0 q 86 83 86 49 q 90 108 86 96 l 267 650 l 526 650 l 386 217 l 515 217 l 657 650 l 917 650 l 740 108 m 546 708 l 493 708 l 569 843 l 664 843 l 546 708 z "},"Û":{"ha":769,"x_min":86,"x_max":917,"o":"m 740 108 q 671 29 725 61 q 575 0 622 0 l 185 0 q 115 24 143 0 q 86 83 86 49 q 90 108 86 96 l 267 650 l 526 650 l 386 217 l 515 217 l 657 650 l 917 650 l 740 108 m 597 811 l 529 721 l 443 721 l 556 854 l 638 854 l 753 721 l 665 721 l 597 811 z "},"Ü":{"ha":769,"x_min":86,"x_max":917,"o":"m 740 108 q 671 29 725 61 q 575 0 622 0 l 185 0 q 115 24 143 0 q 86 83 86 49 q 90 108 86 96 l 267 650 l 526 650 l 386 217 l 515 217 l 657 650 l 917 650 l 740 108 m 524 736 q 478 755 496 736 q 461 800 461 774 q 478 846 461 828 q 524 864 496 864 q 569 846 550 864 q 588 800 588 828 q 569 755 588 774 q 524 736 550 736 m 715 736 q 672 755 690 736 q 653 800 653 774 q 672 846 653 828 q 715 864 690 864 q 760 846 743 864 q 778 800 778 828 q 760 755 778 774 q 715 736 743 736 z "},"Ý":{"ha":729,"x_min":-635,"x_max":888,"o":"m 888 650 l 376 -325 q 305 -403 351 -372 q 211 -433 258 -433 l -635 -433 l -529 -108 l -8 -108 q 103 -78 56 -108 q 157 0 150 -49 l 238 650 l 497 650 l 422 217 l 628 650 l 888 650 m 586 708 l 533 708 l 610 843 l 704 843 l 586 708 z "},"à":{"ha":663,"x_min":114,"x_max":744,"o":"m 603 0 l 468 0 l 483 36 q 378 0 417 0 l 213 0 q 149 19 179 0 q 114 79 114 42 q 118 108 114 93 l 189 325 q 251 399 201 364 q 354 433 300 433 l 744 433 l 603 0 m 543 217 l 579 325 l 449 325 l 414 217 l 543 217 m 440 624 l 535 624 l 611 489 l 558 489 l 440 624 z "},"á":{"ha":663,"x_min":114,"x_max":744,"o":"m 603 0 l 468 0 l 483 36 q 378 0 417 0 l 213 0 q 149 19 179 0 q 114 79 114 42 q 118 108 114 93 l 189 325 q 251 399 201 364 q 354 433 300 433 l 744 433 l 603 0 m 543 217 l 579 325 l 449 325 l 414 217 l 543 217 m 550 492 l 497 492 l 574 626 l 668 626 l 550 492 z "},"â":{"ha":663,"x_min":114,"x_max":744,"o":"m 603 0 l 468 0 l 483 36 q 378 0 417 0 l 213 0 q 149 19 179 0 q 114 79 114 42 q 118 108 114 93 l 189 325 q 251 399 201 364 q 354 433 300 433 l 744 433 l 603 0 m 543 217 l 579 325 l 449 325 l 414 217 l 543 217 m 554 594 l 486 504 l 400 504 l 513 638 l 594 638 l 710 504 l 622 504 l 554 594 z "},"ã":{"ha":663,"x_min":114,"x_max":744,"o":"m 603 0 l 468 0 l 483 36 q 378 0 417 0 l 213 0 q 149 19 179 0 q 114 79 114 42 q 118 108 114 93 l 189 325 q 251 399 201 364 q 354 433 300 433 l 744 433 l 603 0 m 543 217 l 579 325 l 449 325 l 414 217 l 543 217 m 721 572 q 619 506 696 506 q 585 512 600 506 q 557 526 571 518 q 529 540 543 533 q 500 546 515 546 q 467 535 483 546 q 433 499 450 525 l 385 540 q 431 596 406 579 q 489 613 457 613 q 530 607 514 613 q 559 594 546 601 q 585 581 572 586 q 615 575 597 575 q 678 622 656 575 l 721 572 z "},"ä":{"ha":663,"x_min":114,"x_max":744,"o":"m 603 0 l 468 0 l 483 36 q 378 0 417 0 l 213 0 q 149 19 179 0 q 114 79 114 42 q 118 108 114 93 l 189 325 q 251 399 201 364 q 354 433 300 433 l 744 433 l 603 0 m 543 217 l 579 325 l 449 325 l 414 217 l 543 217 m 458 519 q 413 538 431 519 q 396 583 396 557 q 413 629 396 611 q 458 647 431 647 q 503 629 485 647 q 522 583 522 611 q 503 538 522 557 q 458 519 485 519 m 650 519 q 606 538 625 519 q 588 583 588 557 q 606 629 588 611 q 650 647 625 647 q 695 629 678 647 q 713 583 713 611 q 695 538 713 557 q 650 519 678 519 z "},"å":{"ha":663,"x_min":114,"x_max":744,"o":"m 603 0 l 468 0 l 483 36 q 378 0 417 0 l 213 0 q 149 19 179 0 q 114 79 114 42 q 118 108 114 93 l 189 325 q 251 399 201 364 q 354 433 300 433 l 744 433 l 603 0 m 543 217 l 579 325 l 449 325 l 414 217 l 543 217 m 588 656 q 550 639 567 656 q 533 599 533 622 q 549 558 533 574 q 588 542 565 542 q 628 558 611 542 q 644 599 644 574 q 627 639 644 622 q 588 656 610 656 m 586 513 q 526 536 550 513 q 503 596 503 560 q 526 659 503 633 q 586 685 550 685 q 647 658 622 685 q 671 596 671 632 q 647 536 671 560 q 586 513 622 513 z "},"ç":{"ha":649,"x_min":108,"x_max":740,"o":"m 599 0 l 208 0 q 108 76 108 0 q 114 108 108 92 l 185 325 q 251 401 199 368 q 350 433 304 433 l 740 433 l 704 325 l 444 325 l 410 217 l 669 217 l 599 0 m 322 10 l 322 -40 q 392 -103 392 -40 q 371 -160 392 -143 q 306 -176 350 -176 q 277 -174 290 -176 q 257 -168 264 -171 l 271 -121 q 304 -126 282 -126 q 343 -107 343 -126 q 337 -92 343 -96 q 314 -87 331 -87 l 297 -87 q 290 -88 294 -87 q 278 -90 285 -89 l 278 10 l 322 10 z "},"è":{"ha":665,"x_min":113,"x_max":743,"o":"m 601 0 l 213 0 q 144 21 172 0 q 113 81 113 44 q 117 108 113 94 l 188 325 q 252 400 201 367 q 353 433 303 433 l 663 433 q 743 383 743 433 q 706 325 743 350 l 542 217 l 672 217 l 601 0 m 578 325 l 447 325 l 413 217 l 578 325 m 442 624 l 536 624 l 613 489 l 560 489 l 442 624 z "},"é":{"ha":665,"x_min":113,"x_max":743,"o":"m 601 0 l 213 0 q 144 21 172 0 q 113 81 113 44 q 117 108 113 94 l 188 325 q 252 400 201 367 q 353 433 303 433 l 663 433 q 743 383 743 433 q 706 325 743 350 l 542 217 l 672 217 l 601 0 m 578 325 l 447 325 l 413 217 l 578 325 m 494 492 l 442 492 l 518 626 l 613 626 l 494 492 z "},"ê":{"ha":665,"x_min":113,"x_max":743,"o":"m 601 0 l 213 0 q 144 21 172 0 q 113 81 113 44 q 117 108 113 94 l 188 325 q 252 400 201 367 q 353 433 303 433 l 663 433 q 743 383 743 433 q 706 325 743 350 l 542 217 l 672 217 l 601 0 m 578 325 l 447 325 l 413 217 l 578 325 m 526 594 l 458 504 l 372 504 l 485 638 l 567 638 l 682 504 l 594 504 l 526 594 z "},"ë":{"ha":665,"x_min":113,"x_max":743,"o":"m 601 0 l 213 0 q 144 21 172 0 q 113 81 113 44 q 117 108 113 94 l 188 325 q 252 400 201 367 q 353 433 303 433 l 663 433 q 743 383 743 433 q 706 325 743 350 l 542 217 l 672 217 l 601 0 m 578 325 l 447 325 l 413 217 l 578 325 m 431 519 q 385 538 403 519 q 368 583 368 557 q 385 629 368 611 q 431 647 403 647 q 476 629 457 647 q 494 583 494 611 q 476 538 494 557 q 431 519 457 519 m 622 519 q 578 538 597 519 q 560 583 560 557 q 578 629 560 611 q 622 647 597 647 q 667 629 650 647 q 685 583 685 611 q 667 538 685 557 q 622 519 650 519 z "},"ì":{"ha":400,"x_min":86,"x_max":488,"o":"m 347 0 l 86 0 l 228 433 l 488 433 l 347 0 m 308 624 l 403 624 l 479 489 l 426 489 l 308 624 z "},"í":{"ha":400,"x_min":86,"x_max":488,"o":"m 347 0 l 86 0 l 228 433 l 488 433 l 347 0 m 361 492 l 308 492 l 385 626 l 479 626 l 361 492 z "},"î":{"ha":400,"x_min":86,"x_max":549,"o":"m 347 0 l 86 0 l 228 433 l 488 433 l 347 0 m 393 594 l 325 504 l 239 504 l 351 638 l 433 638 l 549 504 l 461 504 l 393 594 z "},"ï":{"ha":400,"x_min":86,"x_max":554,"o":"m 347 0 l 86 0 l 228 433 l 488 433 l 347 0 m 300 519 q 255 538 272 519 q 238 583 238 557 q 255 629 238 611 q 300 647 272 647 q 345 629 326 647 q 364 583 364 611 q 345 538 364 557 q 300 519 326 519 m 492 519 q 448 538 467 519 q 429 583 429 557 q 448 629 429 611 q 492 647 467 647 q 537 629 519 647 q 554 583 554 611 q 537 538 554 557 q 492 519 519 519 z "},"ñ":{"ha":660,"x_min":85,"x_max":714,"o":"m 604 0 l 475 0 l 581 325 l 450 325 l 344 0 l 85 0 l 225 433 l 615 433 q 685 410 657 433 q 714 350 714 386 q 710 325 714 338 l 604 0 m 692 572 q 590 506 667 506 q 556 512 571 506 q 528 526 542 518 q 500 540 514 533 q 471 546 486 546 q 438 535 454 546 q 404 499 421 525 l 356 540 q 402 596 376 579 q 460 613 428 613 q 501 607 485 613 q 530 594 517 601 q 556 581 543 586 q 586 575 568 575 q 649 622 626 575 l 692 572 z "},"ò":{"ha":653,"x_min":111,"x_max":710,"o":"m 635 108 q 572 33 621 65 q 469 0 524 0 l 210 0 q 142 26 172 0 q 111 88 111 53 q 115 108 111 99 l 185 325 q 251 401 200 369 q 350 433 301 433 l 610 433 q 681 411 653 433 q 710 354 710 389 q 706 325 710 340 l 635 108 m 410 217 l 446 325 l 315 325 l 281 217 l 410 217 m 435 624 l 529 624 l 606 489 l 553 489 l 435 624 z "},"ó":{"ha":653,"x_min":111,"x_max":710,"o":"m 635 108 q 572 33 621 65 q 469 0 524 0 l 210 0 q 142 26 172 0 q 111 88 111 53 q 115 108 111 99 l 185 325 q 251 401 200 369 q 350 433 301 433 l 610 433 q 681 411 653 433 q 710 354 710 389 q 706 325 710 340 l 635 108 m 410 217 l 446 325 l 315 325 l 281 217 l 410 217 m 488 492 l 435 492 l 511 626 l 606 626 l 488 492 z "},"ô":{"ha":653,"x_min":111,"x_max":710,"o":"m 635 108 q 572 33 621 65 q 469 0 524 0 l 210 0 q 142 26 172 0 q 111 88 111 53 q 115 108 111 99 l 185 325 q 251 401 200 369 q 350 433 301 433 l 610 433 q 681 411 653 433 q 710 354 710 389 q 706 325 710 340 l 635 108 m 410 217 l 446 325 l 315 325 l 281 217 l 410 217 m 519 594 l 451 504 l 365 504 l 478 638 l 560 638 l 675 504 l 588 504 l 519 594 z "},"õ":{"ha":653,"x_min":111,"x_max":710,"o":"m 635 108 q 572 33 621 65 q 469 0 524 0 l 210 0 q 142 26 172 0 q 111 88 111 53 q 115 108 111 99 l 185 325 q 251 401 200 369 q 350 433 301 433 l 610 433 q 681 411 653 433 q 710 354 710 389 q 706 325 710 340 l 635 108 m 410 217 l 446 325 l 315 325 l 281 217 l 410 217 m 689 572 q 588 506 664 506 q 553 512 568 506 q 525 526 539 518 q 497 540 511 533 q 468 546 483 546 q 435 535 451 546 q 401 499 418 525 l 353 540 q 399 596 374 579 q 457 613 425 613 q 498 607 482 613 q 527 594 514 601 q 553 581 540 586 q 583 575 565 575 q 646 622 624 575 l 689 572 z "},"ö":{"ha":653,"x_min":111,"x_max":710,"o":"m 635 108 q 572 33 621 65 q 469 0 524 0 l 210 0 q 142 26 172 0 q 111 88 111 53 q 115 108 111 99 l 185 325 q 251 401 200 369 q 350 433 301 433 l 610 433 q 681 411 653 433 q 710 354 710 389 q 706 325 710 340 l 635 108 m 410 217 l 446 325 l 315 325 l 281 217 l 410 217 m 425 519 q 380 538 397 519 q 363 583 363 557 q 380 629 363 611 q 425 647 397 647 q 470 629 451 647 q 489 583 489 611 q 470 538 489 557 q 425 519 451 519 m 617 519 q 573 538 592 519 q 554 583 554 557 q 573 629 554 611 q 617 647 592 647 q 662 629 644 647 q 679 583 679 611 q 662 538 679 557 q 617 519 644 519 z "},"ù":{"ha":663,"x_min":115,"x_max":744,"o":"m 639 108 q 582 35 625 65 q 474 0 535 0 l 214 0 q 142 24 168 0 q 115 82 115 47 q 119 108 115 94 l 225 433 l 485 433 l 414 217 l 544 217 l 615 433 l 744 433 l 639 108 m 419 624 l 514 624 l 590 489 l 538 489 l 419 624 z "},"ú":{"ha":663,"x_min":115,"x_max":744,"o":"m 639 108 q 582 35 625 65 q 474 0 535 0 l 214 0 q 142 24 168 0 q 115 82 115 47 q 119 108 115 94 l 225 433 l 485 433 l 414 217 l 544 217 l 615 433 l 744 433 l 639 108 m 560 492 l 507 492 l 583 626 l 678 626 l 560 492 z "},"û":{"ha":663,"x_min":115,"x_max":744,"o":"m 639 108 q 582 35 625 65 q 474 0 535 0 l 214 0 q 142 24 168 0 q 115 82 115 47 q 119 108 115 94 l 225 433 l 485 433 l 414 217 l 544 217 l 615 433 l 744 433 l 639 108 m 525 594 l 457 504 l 371 504 l 483 638 l 565 638 l 681 504 l 593 504 l 525 594 z "},"ü":{"ha":663,"x_min":115,"x_max":744,"o":"m 639 108 q 582 35 625 65 q 474 0 535 0 l 214 0 q 142 24 168 0 q 115 82 115 47 q 119 108 115 94 l 225 433 l 485 433 l 414 217 l 544 217 l 615 433 l 744 433 l 639 108 m 429 519 q 384 538 401 519 q 367 583 367 557 q 384 629 367 611 q 429 647 401 647 q 474 629 456 647 q 493 583 493 611 q 474 538 493 557 q 429 519 456 519 m 621 519 q 577 538 596 519 q 558 583 558 557 q 577 629 558 611 q 621 647 596 647 q 666 629 649 647 q 683 583 683 611 q 666 538 683 557 q 621 519 649 519 z "},"ý":{"ha":625,"x_min":-485,"x_max":707,"o":"m 461 -325 q 392 -407 443 -376 q 296 -433 346 -433 l -485 -433 l -379 -108 l 140 -108 q 251 -74 206 -108 q 306 0 289 -43 l 176 0 q 76 78 76 0 q 82 108 76 92 l 188 433 l 317 433 l 246 217 l 376 217 l 447 433 l 707 433 l 461 -325 m 474 492 l 421 492 l 497 626 l 592 626 l 474 492 z "},"ÿ":{"ha":625,"x_min":-485,"x_max":707,"o":"m 461 -325 q 392 -407 443 -376 q 296 -433 346 -433 l -485 -433 l -379 -108 l 140 -108 q 251 -74 206 -108 q 306 0 289 -43 l 176 0 q 76 78 76 0 q 82 108 76 92 l 188 433 l 317 433 l 246 217 l 376 217 l 447 433 l 707 433 l 461 -325 m 411 519 q 366 538 383 519 q 349 583 349 557 q 366 629 349 611 q 411 647 383 647 q 456 629 438 647 q 475 583 475 611 q 456 538 475 557 q 411 519 438 519 m 603 519 q 559 538 578 519 q 540 583 540 557 q 559 629 540 611 q 603 647 578 647 q 648 629 631 647 q 665 583 665 611 q 648 538 665 557 q 603 519 631 519 z "},"Ø":{"ha":794,"x_min":113,"x_max":914,"o":"m 767 108 q 694 29 751 64 q 601 0 643 0 l 211 0 q 139 25 165 0 q 113 83 113 50 q 117 108 113 96 l 257 542 q 324 617 271 583 q 422 650 376 650 l 813 650 q 914 579 914 650 q 907 542 914 563 l 767 108 m 435 286 l 631 542 l 518 542 l 435 286 m 542 217 l 611 431 l 444 217 l 542 217 z "},"ø":{"ha":653,"x_min":111,"x_max":710,"o":"m 635 108 q 572 33 621 65 q 469 0 524 0 l 210 0 q 142 26 172 0 q 111 88 111 53 q 115 108 111 99 l 185 325 q 251 401 200 369 q 350 433 301 433 l 610 433 q 681 411 653 433 q 710 354 710 389 q 706 325 710 340 l 635 108 m 286 235 l 422 325 l 315 325 l 286 235 m 413 206 l 447 299 l 310 206 l 413 206 z "},"æ":{"ha":1089,"x_min":114,"x_max":1139,"o":"m 997 0 l 486 0 l 511 61 q 358 0 435 0 l 213 0 q 149 19 179 0 q 114 79 114 42 q 118 108 114 93 l 189 325 q 251 399 201 364 q 354 433 300 433 l 1058 433 q 1139 383 1139 433 q 1101 325 1139 350 l 938 217 l 1068 217 l 997 0 m 543 217 l 579 325 l 449 325 l 414 217 l 543 217 m 974 325 l 843 325 l 808 217 l 974 325 z "},"Æ":{"ha":1161,"x_min":24,"x_max":1283,"o":"m 1072 0 l 553 0 q 482 25 510 0 q 454 85 454 50 q 457 108 454 96 l 524 314 l 519 325 l 389 325 l 283 0 l 24 0 l 200 542 q 272 624 215 592 q 364 650 319 650 l 1283 650 l 1249 542 l 858 542 l 824 433 l 1083 433 l 1047 325 l 788 325 l 753 217 l 1143 217 l 1072 0 m 554 433 l 589 542 l 460 542 l 424 433 l 554 433 z "},"Œ":{"ha":1165,"x_min":113,"x_max":1343,"o":"m 1132 0 l 211 0 q 139 25 165 0 q 113 83 113 50 q 117 108 113 96 l 257 542 q 283 582 264 563 q 325 617 301 601 q 374 641 349 632 q 422 650 400 650 l 1343 650 l 1308 542 l 918 542 l 883 433 l 1143 433 l 1107 325 l 847 325 l 813 217 l 1203 217 l 1132 0 m 542 217 l 647 542 l 518 542 l 413 217 l 542 217 z "},"œ":{"ha":960,"x_min":111,"x_max":1011,"o":"m 869 0 l 210 0 q 142 26 172 0 q 111 88 111 53 q 115 108 111 99 l 185 325 q 251 401 200 369 q 350 433 301 433 l 931 433 q 1011 383 1011 433 q 974 325 1011 350 l 810 217 l 940 217 l 869 0 m 410 217 l 446 325 l 315 325 l 281 217 l 410 217 m 846 325 l 715 325 l 681 217 l 846 325 z "},"[":{"ha":671,"x_min":-64,"x_max":753,"o":"m 506 -325 q 441 -403 490 -372 q 340 -433 392 -433 l -64 -433 l 42 -108 l 186 -108 q 324 -50 274 -108 q 351 0 343 -26 l 222 0 q 151 26 179 0 q 124 86 124 51 q 126 108 124 97 l 197 325 q 251 396 210 364 q 363 433 301 433 l 753 433 l 506 -325 m 422 217 l 457 325 l 328 325 l 292 217 l 422 217 z "},"\\":{"ha":665,"x_min":-42,"x_max":722,"o":"m 647 108 q 583 34 633 68 q 482 0 533 0 l 351 0 l 208 -436 l -42 -436 l 232 433 l 622 433 q 722 354 722 433 q 717 325 722 340 l 647 108 m 553 217 l 588 325 l 457 325 l 422 217 l 553 217 z "},"]":{"ha":563,"x_min":67,"x_max":696,"o":"m 425 -433 l 283 -433 q 185 -354 185 -433 q 189 -325 185 -339 l 294 0 l 165 0 q 93 26 119 0 q 67 85 67 51 q 69 108 67 97 l 140 325 q 206 399 153 364 q 306 433 258 433 l 696 433 l 425 -433 m 365 217 l 400 325 l 271 325 l 235 217 l 365 217 z "},"^":{"ha":751,"x_min":-62,"x_max":756,"o":"m 610 -325 q 542 -401 594 -369 q 444 -433 490 -433 l -62 -433 l 44 -108 l 290 -108 q 454 0 414 -108 q 467 51 467 32 q 360 108 467 108 l 231 108 q 131 186 131 108 q 135 217 131 201 l 171 325 q 236 401 185 368 q 336 433 288 433 l 596 433 l 560 325 l 431 325 l 396 217 l 656 217 q 756 142 756 217 q 750 108 756 126 l 610 -325 z "},"{":{"ha":400,"x_min":-221,"x_max":554,"o":"m 519 542 l 260 542 l 294 650 l 554 650 l 519 542 m 238 -325 q 172 -403 222 -372 q 72 -433 122 -433 l -221 -433 l -115 -108 l -82 -108 q 83 0 49 -108 l 224 433 l 485 433 l 238 -325 z "},"|":{"ha":625,"x_min":-68,"x_max":707,"o":"m 461 -325 q 392 -407 443 -376 q 296 -433 346 -433 l -68 -433 l 38 -108 l 140 -108 q 251 -74 206 -108 q 306 0 289 -43 l 176 0 q 76 78 76 0 q 82 108 76 92 l 188 433 l 317 433 l 246 217 l 376 217 l 447 433 l 707 433 l 461 -325 z "},"}":{"ha":1964,"x_min":201,"x_max":1993,"o":"m 201 407 l 203 407 l 203 472 l 296 472 l 296 511 l 271 511 l 271 633 l 296 633 l 296 676 l 271 676 l 271 728 l 881 728 l 881 664 q 847 682 871 682 q 783 575 783 682 q 850 469 783 469 q 893 496 871 469 l 893 472 l 926 472 l 926 728 l 1446 728 l 1446 692 l 1493 692 l 1493 728 l 1993 728 l 1993 0 l 201 0 l 201 407 m 1418 472 l 1418 603 q 1353 678 1418 678 q 1310 644 1319 678 q 1271 678 1297 678 q 1233 644 1247 678 l 1233 676 l 1189 676 l 1189 511 l 1163 511 l 1163 472 l 1260 472 l 1260 511 l 1233 511 l 1233 596 q 1260 628 1233 628 q 1281 596 1281 628 l 1281 472 l 1351 472 l 1351 511 l 1325 511 l 1325 596 q 1351 626 1325 626 q 1372 596 1372 626 l 1372 472 l 1418 472 m 1485 371 l 1407 371 l 1407 108 l 1451 108 l 1451 278 l 1456 278 l 1468 108 l 1549 108 l 1549 371 l 1504 371 l 1504 201 l 1500 201 l 1485 371 m 782 371 l 782 108 l 892 108 l 907 138 l 907 224 l 896 243 l 896 247 l 907 267 l 907 343 l 892 371 l 782 371 m 1263 343 l 1263 138 l 1276 108 l 1369 108 l 1386 138 l 1386 343 l 1371 371 l 1276 371 l 1263 343 m 492 371 l 492 108 l 544 108 l 544 224 l 560 224 l 560 108 l 617 108 l 617 214 l 596 243 l 596 247 l 617 275 l 617 343 l 601 371 l 492 371 m 471 407 l 517 407 l 517 485 q 550 468 526 468 q 614 574 614 468 q 547 679 614 679 q 504 651 528 679 l 504 676 l 471 676 l 471 407 m 775 572 q 699 681 775 681 q 624 572 624 681 q 699 467 624 467 q 775 572 775 467 m 1760 290 l 1813 290 l 1813 343 l 1799 371 l 1707 371 l 1692 343 l 1692 251 l 1708 224 l 1760 211 l 1760 158 l 1746 158 l 1746 197 l 1692 197 l 1692 138 l 1707 108 l 1797 108 l 1813 138 l 1813 238 l 1794 267 l 1746 278 l 1746 324 l 1760 324 l 1760 290 m 471 108 l 471 204 l 435 371 l 378 371 l 346 204 l 346 108 l 397 108 l 397 158 l 415 158 l 415 108 l 471 108 m 760 108 l 760 204 l 726 371 l 669 371 l 638 204 l 638 108 l 690 108 l 690 158 l 707 158 l 707 108 l 760 108 m 350 407 l 379 407 q 456 506 456 415 l 456 676 l 410 676 l 410 550 q 382 514 410 514 q 356 550 356 514 l 356 676 l 311 676 l 311 558 q 375 469 311 469 q 410 481 394 469 q 371 449 410 449 l 350 449 l 350 407 m 1057 221 l 1093 221 l 1093 267 l 1057 267 l 1057 315 l 1093 315 l 1093 371 l 1004 371 l 1004 108 l 1093 108 l 1093 167 l 1057 167 l 1057 221 m 1207 217 l 1240 217 l 1240 263 l 1207 263 l 1207 315 l 1240 315 l 1240 371 l 1153 371 l 1153 108 l 1207 108 l 1207 217 m 1593 315 l 1593 108 l 1647 108 l 1647 315 l 1676 315 l 1676 371 l 1564 371 l 1564 315 l 1593 315 m 1067 676 l 1046 676 l 1046 644 q 1000 681 1031 681 q 940 621 940 681 q 971 571 940 583 q 939 525 939 558 q 1001 467 940 467 q 1049 485 1032 467 q 1067 540 1067 503 l 1046 540 q 1011 514 1042 514 q 983 533 983 514 q 1011 558 983 558 l 1025 558 l 1025 583 l 1011 583 q 983 607 983 583 q 1011 629 983 629 q 1046 601 1035 629 l 1067 601 l 1067 676 m 1638 674 l 1615 674 l 1615 644 q 1574 681 1599 681 q 1504 572 1504 681 q 1575 468 1504 468 q 1638 549 1625 468 l 1615 549 q 1581 517 1611 517 q 1549 572 1549 517 q 1581 629 1549 629 q 1615 592 1613 629 l 1638 592 l 1638 674 m 325 167 l 294 167 l 294 371 l 242 371 l 242 108 l 325 108 l 325 167 m 983 108 l 983 371 l 929 371 l 929 108 l 983 108 m 1143 511 l 1124 511 l 1124 601 q 1143 629 1124 629 q 1160 621 1151 629 l 1175 667 q 1151 678 1164 676 q 1108 644 1122 678 l 1108 676 l 1082 676 l 1082 472 l 1143 472 l 1143 511 m 1425 676 l 1425 633 l 1446 633 l 1446 472 l 1493 472 l 1493 676 l 1425 676 m 513 607 q 542 628 521 628 q 571 575 571 628 q 540 515 571 515 q 513 538 521 515 l 513 607 m 729 572 q 699 517 729 517 q 669 572 669 517 q 699 629 669 629 q 729 572 729 629 m 883 540 q 856 521 875 521 q 826 574 826 521 q 857 633 826 633 q 883 611 875 633 l 883 540 m 203 511 l 203 633 l 229 633 l 229 511 l 203 511 m 1315 158 l 1315 324 l 1331 324 l 1331 158 l 1315 158 m 203 676 l 203 728 l 229 728 l 229 676 l 203 676 m 397 197 l 397 224 l 406 293 l 408 293 l 415 224 l 415 197 l 397 197 m 690 197 l 690 224 l 697 293 l 701 293 l 707 224 l 707 197 l 690 197 m 836 224 l 851 224 l 851 158 l 836 158 l 836 224 m 836 267 l 836 324 l 851 324 l 851 267 l 836 267 m 544 267 l 544 324 l 560 324 l 560 267 l 544 267 z "}," ":{"ha":329,"x_min":0,"x_max":0,"o":""}}}
